<svg width="14" height="22" viewBox="0 0 14 22" fill="none" xmlns="http://www.w3.org/2000/svg">
<path fill-rule="evenodd" clip-rule="evenodd" d="M4.7259 9.03006C4.38347 8.99003 4.03011 8.99003 3.68767 9.03006C3.34765 9.06981 3.07126 9.34954 3.03076 9.71166C2.98975 10.0785 2.98975 10.4491 3.03076 10.8159C3.07126 11.178 3.34765 11.4577 3.68767 11.4975C4.03011 11.5375 4.38347 11.5375 4.7259 11.4975C5.06592 11.4577 5.34232 11.178 5.38281 10.8159C5.42383 10.4491 5.42383 10.0785 5.38281 9.71166C5.34232 9.34954 5.06592 9.06981 4.7259 9.03006ZM3.84152 10.6484C3.81723 10.3926 3.81723 10.1349 3.84152 9.87914C4.08289 9.8552 4.33068 9.8552 4.57205 9.87914C4.59635 10.1349 4.59635 10.3926 4.57205 10.6484C4.33068 10.6723 4.08289 10.6723 3.84152 10.6484Z" fill="black"/>
<path fill-rule="evenodd" clip-rule="evenodd" d="M8.01912 9.03006C7.67668 8.99003 7.32332 8.99003 6.98088 9.03006C6.64087 9.06981 6.36447 9.34954 6.32398 9.71166C6.28296 10.0785 6.28296 10.4491 6.32398 10.8159C6.36447 11.178 6.64087 11.4577 6.98088 11.4975C7.32332 11.5375 7.67668 11.5375 8.01912 11.4975C8.35913 11.4577 8.63553 11.178 8.67602 10.8159C8.71704 10.4491 8.71704 10.0785 8.67602 9.71166C8.63553 9.34954 8.35913 9.06981 8.01912 9.03006ZM7.13473 10.6484C7.11044 10.3926 7.11044 10.1349 7.13473 9.87914C7.37611 9.8552 7.62389 9.8552 7.86527 9.87914C7.88956 10.1349 7.88956 10.3926 7.86527 10.6484C7.62389 10.6723 7.37611 10.6723 7.13473 10.6484Z" fill="black"/>
<path fill-rule="evenodd" clip-rule="evenodd" d="M10.2741 9.03006C10.6165 8.99003 10.9699 8.99003 11.3123 9.03006C11.6523 9.06981 11.9287 9.34954 11.9692 9.71166C12.0103 10.0785 12.0103 10.4491 11.9692 10.8159C11.9287 11.178 11.6523 11.4577 11.3123 11.4975C10.9699 11.5375 10.6165 11.5375 10.2741 11.4975C9.93408 11.4577 9.65768 11.178 9.61719 10.8159C9.57617 10.4491 9.57617 10.0785 9.61719 9.71166C9.65768 9.34954 9.93408 9.06981 10.2741 9.03006ZM10.4279 9.87914C10.4037 10.1349 10.4037 10.3926 10.4279 10.6484C10.6693 10.6723 10.9171 10.6723 11.1585 10.6484C11.1828 10.3926 11.1828 10.1349 11.1585 9.87914C10.9171 9.8552 10.6693 9.8552 10.4279 9.87914Z" fill="black"/>
<path fill-rule="evenodd" clip-rule="evenodd" d="M4.7259 12.1876C4.38347 12.1475 4.03011 12.1475 3.68767 12.1876C3.34765 12.2273 3.07126 12.5071 3.03076 12.8692C2.98975 13.236 2.98975 13.6066 3.03076 13.9734C3.07126 14.3355 3.34765 14.6152 3.68767 14.655C4.03011 14.695 4.38347 14.695 4.7259 14.655C5.06592 14.6152 5.34232 14.3355 5.38281 13.9734C5.42383 13.6066 5.42383 13.236 5.38281 12.8692C5.34232 12.5071 5.06592 12.2273 4.7259 12.1876ZM3.84152 13.8059C3.81723 13.5501 3.81723 13.2924 3.84152 13.0367C4.08289 13.0127 4.33068 13.0127 4.57205 13.0367C4.59635 13.2924 4.59635 13.5501 4.57205 13.8059C4.33068 13.8299 4.08289 13.8299 3.84152 13.8059Z" fill="black"/>
<path fill-rule="evenodd" clip-rule="evenodd" d="M6.98088 12.1876C7.32332 12.1475 7.67668 12.1475 8.01912 12.1876C8.35913 12.2273 8.63553 12.5071 8.67602 12.8692C8.71704 13.236 8.71704 13.6066 8.67602 13.9734C8.63553 14.3355 8.35913 14.6152 8.01912 14.655C7.67668 14.695 7.32332 14.695 6.98088 14.655C6.64087 14.6152 6.36447 14.3355 6.32398 13.9734C6.28296 13.6066 6.28296 13.236 6.32398 12.8692C6.36447 12.5071 6.64087 12.2273 6.98088 12.1876ZM7.13473 13.0367C7.11044 13.2924 7.11044 13.5501 7.13473 13.8059C7.37611 13.8299 7.62389 13.8299 7.86527 13.8059C7.88956 13.5501 7.88956 13.2924 7.86527 13.0367C7.62389 13.0127 7.37611 13.0127 7.13473 13.0367Z" fill="black"/>
<path fill-rule="evenodd" clip-rule="evenodd" d="M11.3123 12.1876C10.9699 12.1475 10.6165 12.1475 10.2741 12.1876C9.93408 12.2273 9.65768 12.5071 9.61719 12.8692C9.57617 13.236 9.57617 13.6066 9.61719 13.9734C9.65768 14.3355 9.93408 14.6152 10.2741 14.655C10.6165 14.695 10.9699 14.695 11.3123 14.655C11.6523 14.6152 11.9287 14.3355 11.9692 13.9734C12.0103 13.6066 12.0103 13.236 11.9692 12.8692C11.9287 12.5071 11.6523 12.2273 11.3123 12.1876ZM10.4279 13.8059C10.4037 13.5501 10.4037 13.2924 10.4279 13.0367C10.6693 13.0127 10.9171 13.0127 11.1585 13.0367C11.1828 13.2924 11.1828 13.5501 11.1585 13.8059C10.9171 13.8299 10.6693 13.8299 10.4279 13.8059Z" fill="black"/>
<path fill-rule="evenodd" clip-rule="evenodd" d="M3.68767 15.3451C4.03011 15.3051 4.38347 15.3051 4.7259 15.3451C5.06592 15.3848 5.34232 15.6646 5.38281 16.0267C5.42383 16.3935 5.42383 16.7641 5.38281 17.1309C5.34232 17.493 5.06592 17.7728 4.7259 17.8125C4.38347 17.8525 4.03011 17.8525 3.68767 17.8125C3.34765 17.7728 3.07126 17.493 3.03076 17.1309C2.98975 16.7641 2.98975 16.3935 3.03076 16.0267C3.07126 15.6646 3.34765 15.3848 3.68767 15.3451ZM3.84152 16.1942C3.81723 16.45 3.81723 16.7076 3.84152 16.9634C4.08289 16.9874 4.33068 16.9874 4.57205 16.9634C4.59635 16.7076 4.59635 16.45 4.57205 16.1942C4.33068 16.1702 4.08289 16.1702 3.84152 16.1942Z" fill="black"/>
<path fill-rule="evenodd" clip-rule="evenodd" d="M8.01912 15.3451C7.67668 15.3051 7.32332 15.3051 6.98088 15.3451C6.64087 15.3848 6.36447 15.6646 6.32398 16.0267C6.28296 16.3935 6.28296 16.7641 6.32398 17.1309C6.36447 17.493 6.64087 17.7728 6.98088 17.8125C7.32332 17.8525 7.67668 17.8525 8.01912 17.8125C8.35913 17.7728 8.63553 17.493 8.67602 17.1309C8.71704 16.7641 8.71704 16.3935 8.67602 16.0267C8.63553 15.6646 8.35913 15.3848 8.01912 15.3451ZM7.13473 16.9634C7.11044 16.7076 7.11044 16.45 7.13473 16.1942C7.37611 16.1702 7.62389 16.1702 7.86527 16.1942C7.88956 16.45 7.88956 16.7076 7.86527 16.9634C7.62389 16.9874 7.37611 16.9874 7.13473 16.9634Z" fill="black"/>
<path fill-rule="evenodd" clip-rule="evenodd" d="M3.68767 4.53244C4.03011 4.49241 10.6576 4.45995 11 4.49998C11.34 4.53973 11.4595 4.85191 11.5 5.21404C11.541 5.58086 11.541 6.13291 11.5 6.49973C11.4595 6.86185 11.34 6.96025 11 7C10.6576 7.04003 4.03011 7.03988 3.68767 6.99985C3.34765 6.9601 3.07126 6.68037 3.03076 6.31825C2.98975 5.95143 2.98975 5.58086 3.03076 5.21404C3.07126 4.85191 3.34765 4.57219 3.68767 4.53244ZM3.84152 5.38151C3.81723 5.6373 3.81723 5.89498 3.84152 6.15078C4.08289 6.17472 10.6354 6.17472 10.8767 6.15078C10.901 5.89498 10.901 5.6373 10.8767 5.38151C10.6354 5.35757 4.08289 5.35757 3.84152 5.38151Z" fill="black"/>
<path fill-rule="evenodd" clip-rule="evenodd" d="M11.3123 15.3451C10.9699 15.3051 10.6165 15.3051 10.2741 15.3451C9.93408 15.3848 9.65768 15.6646 9.61719 16.0267C9.57617 16.3935 9.57617 16.7641 9.61719 17.1309C9.65768 17.493 9.93408 17.7728 10.2741 17.8125C10.6165 17.8525 10.9699 17.8525 11.3123 17.8125C11.6523 17.7728 11.9287 17.493 11.9692 17.1309C12.0103 16.7641 12.0103 16.3935 11.9692 16.0267C11.9287 15.6646 11.6523 15.3848 11.3123 15.3451ZM10.4279 16.9634C10.4037 16.7076 10.4037 16.45 10.4279 16.1942C10.6693 16.1702 10.9171 16.1702 11.1585 16.1942C11.1828 16.45 11.1828 16.7076 11.1585 16.9634C10.9171 16.9874 10.6693 16.9874 10.4279 16.9634Z" fill="black"/>
<path fill-rule="evenodd" clip-rule="evenodd" d="M13.9935 9.13456L13.987 9.37742L13.9935 9.63458L13.9873 9.87782L13.9935 10.1346L13.9876 10.3795L13.9935 10.6346L13.8311 17.7376C13.7926 19.4229 12.5108 20.8185 10.8349 21C8.44745 21.2585 6.03908 21.2585 3.65166 21C1.97574 20.8185 0.693978 19.4229 0.655451 17.7376L0.493069 10.6346L0.49894 10.3778L0.493087 10.1346L0.499242 9.87882L0.493038 9.63458L0.499542 9.37853L0.49298 9.13456L0.656985 3.03665C0.659273 2.95157 0.665253 2.86737 0.674774 2.78422L0.678504 2.74906L0.681462 2.72072C0.762073 1.89662 1.21875 1.17786 1.88428 0.746526C1.93393 0.713505 1.98475 0.682058 2.03666 0.65226C2.08744 0.622207 2.13928 0.593705 2.1921 0.566819C2.51869 0.394455 2.88319 0.282737 3.27119 0.247021C5.91364 0.00378007 8.57286 0.00378023 11.2153 0.247022C11.6027 0.28268 11.9666 0.3941 12.2928 0.565995C12.3457 0.592842 12.3975 0.621305 12.4483 0.651318C12.5019 0.682009 12.5542 0.714452 12.6054 0.748568C13.2674 1.17894 13.7221 1.89396 13.8044 2.71392L13.8122 2.78822C13.8214 2.87007 13.8273 2.95293 13.8295 3.03665L13.9935 9.13456ZM12.3175 2.95526L12.4745 9.82195L12.3473 14.5522C12.3187 15.6155 12.3398 18.9671 11.2806 19.0646C9.15368 19.2604 5.33285 19.2604 3.20598 19.0646C2.14671 18.9671 2.16783 15.6155 2.13923 14.5522L2.01203 9.82253L2.16902 2.95526C2.16936 2.94049 2.16997 2.92578 2.17086 2.91114C2.23034 2.50886 2.46347 2.16161 2.79402 1.95075C2.91924 1.88547 3.05818 1.84218 3.20598 1.82617C5.88966 1.53554 8.59687 1.53554 11.2806 1.82617C11.4283 1.84217 11.5672 1.88543 11.6924 1.95067C12.0231 2.16158 12.2563 2.509 12.3157 2.91147C12.3166 2.926 12.3172 2.9406 12.3175 2.95526Z" fill="black"/>
</svg>
