<svg width="35" height="43" viewBox="0 0 35 43" fill="none" xmlns="http://www.w3.org/2000/svg">
<path d="M30.9431 24.8507C31.2554 24.7578 31.5831 24.7987 31.8376 24.9623C32.0921 25.1259 32.2472 25.3953 32.2608 25.6977L32.4999 31.0017C32.5178 31.397 32.292 31.786 31.9207 31.9998C31.5495 32.2136 31.0997 32.2136 30.767 31.9997L28.7866 30.7267C28.7601 30.7579 28.7316 30.7881 28.7011 30.8172C23.9351 35.3625 11.3837 35.163 7 31C2.61632 26.837 4.14795 24.9623 4.14795 24.9623C7.89567 24.2881 4.57116 26.2122 8.14795 29.6089C11.6663 32.9501 23.1541 33.1457 27.0476 29.6089L25.0495 28.3246C24.7168 28.1107 24.561 27.7216 24.65 27.3264C24.739 26.9311 25.0566 26.6011 25.4649 26.4797L30.9431 24.8507Z" fill="black"/>
<path d="M4.23743 18.6225C3.92861 18.7262 3.59967 18.6968 3.3396 18.5422C3.07952 18.3875 2.91517 18.1237 2.891 17.8221L2.4669 12.5296C2.43529 12.1352 2.64736 11.7385 3.01093 11.5119C3.37451 11.2852 3.82397 11.2696 4.164 11.4718L6.18754 12.6748C6.21297 12.6427 6.24042 12.6115 6.2699 12.5814C10.8743 7.87256 23.4251 7.63393 27.9514 11.6414C32.4777 15.6488 31.0124 17.5758 31.0124 17.5758C27.2905 18.3804 30.5458 16.3414 26.8527 13.0716C23.2199 9.8553 11.7322 10.0607 7.96452 13.7312L10.0062 14.945C10.3462 15.1472 10.5154 15.5306 10.4403 15.9287C10.3652 16.3268 10.0593 16.6678 9.65552 16.8033L4.23743 18.6225Z" fill="black"/>
<path fill-rule="evenodd" clip-rule="evenodd" d="M13.1176 22.0446C13.1176 20.1405 14.632 18.5969 16.5 18.5969C18.368 18.5969 19.8824 20.1405 19.8824 22.0446C19.8824 23.9487 18.368 25.4923 16.5 25.4923C14.632 25.4923 13.1176 23.9487 13.1176 22.0446ZM16.5 19.976C15.3792 19.976 14.4706 20.9022 14.4706 22.0446C14.4706 23.1871 15.3792 24.1133 16.5 24.1133C17.6208 24.1133 18.5294 23.1871 18.5294 22.0446C18.5294 20.9022 17.6208 19.976 16.5 19.976Z" fill="black"/>
<path fill-rule="evenodd" clip-rule="evenodd" d="M15.2518 15.3791C14.3091 15.3791 13.5449 16.1581 13.5449 17.119C13.5449 17.7312 13.0838 18.241 12.4851 18.2905L10.474 18.457C10.0792 18.4897 9.75446 18.7873 9.68076 19.1841C9.27601 21.363 9.24583 23.5971 9.59156 25.7866L9.67928 26.3421C9.76212 26.8667 10.1857 27.2658 10.7053 27.3088L12.4572 27.4539C15.148 27.6766 17.852 27.6766 20.5428 27.4539L22.2947 27.3088C22.8143 27.2658 23.2379 26.8667 23.3207 26.3421L23.4084 25.7866C23.7542 23.5971 23.724 21.363 23.3192 19.1841C23.2455 18.7873 22.9208 18.4897 22.526 18.457L20.5149 18.2905C19.9162 18.241 19.4551 17.7312 19.4551 17.119C19.4551 16.1581 18.6909 15.3791 17.7482 15.3791H15.2518ZM12.1974 16.9307C12.2929 15.2958 13.6239 14 15.2518 14H17.7482C19.3761 14 20.7071 15.2958 20.8026 16.9307L22.6355 17.0825C23.6375 17.1654 24.4615 17.9207 24.6486 18.9275C25.0825 21.2635 25.1148 23.6585 24.7442 26.0057L24.6565 26.5612C24.4746 27.7128 23.5448 28.589 22.4042 28.6834L20.6523 28.8284C17.8886 29.0572 15.1114 29.0572 12.3477 28.8284L10.5958 28.6834C9.45522 28.589 8.52537 27.7128 8.34353 26.5612L8.25581 26.0058C7.88516 23.6585 7.91752 21.2635 8.35143 18.9275C8.53845 17.9207 9.36252 17.1654 10.3645 17.0825L12.1974 16.9307Z" fill="black"/>
</svg>
