<svg width="20" height="16" viewBox="0 0 20 16" fill="none" xmlns="http://www.w3.org/2000/svg">
<path fill-rule="evenodd" clip-rule="evenodd" d="M0.803664 4.3533C0.52352 6.95619 0.536008 9.95818 0.925831 12.5505C1.14153 13.9849 2.3122 15.0845 3.75727 15.2102L5.2675 15.3414C8.41655 15.6152 11.5834 15.6152 14.7325 15.3414L16.2427 15.2102C17.6878 15.0845 18.8584 13.9849 19.0741 12.5505C19.4639 9.95817 19.4765 6.95636 19.1963 4.35345C19.1601 4.05169 19.1194 3.75034 19.0741 3.44949C18.8584 2.0151 17.6878 0.915451 16.2427 0.789834L14.7325 0.658552C11.5834 0.384812 8.41655 0.384812 5.2675 0.658553L3.75727 0.789834C2.3122 0.915451 1.14153 2.0151 0.925831 3.44949C0.880599 3.75028 0.839876 4.05159 0.803664 4.3533ZM5.3974 2.15292C8.46001 1.88669 11.5399 1.88669 14.6025 2.15292L16.1128 2.2842C16.8671 2.34977 17.4782 2.92379 17.5908 3.67254C17.6025 3.7503 17.6139 3.82809 17.6249 3.90592L12.0639 6.99537C10.7803 7.70848 9.21955 7.70848 7.93596 6.99537L2.37502 3.90596C2.38608 3.82812 2.39746 3.75031 2.40915 3.67254C2.52175 2.92379 3.13284 2.34977 3.88717 2.2842L5.3974 2.15292ZM17.8085 5.51989C18.0025 7.78764 17.9299 10.0725 17.5908 12.3274C17.4782 13.0762 16.8671 13.6502 16.1128 13.7158L14.6026 13.8471C11.5399 14.1133 8.46001 14.1133 5.3974 13.8471L3.88717 13.7158C3.13284 13.6502 2.52175 13.0762 2.40915 12.3274C2.07006 10.0725 1.9975 7.78766 2.19147 5.51992L7.20749 8.3066C8.94412 9.2714 11.0558 9.2714 12.7924 8.3066L17.8085 5.51989Z" fill="black"/>
</svg>
