<svg width="18" height="20" viewBox="0 0 18 20" fill="none" xmlns="http://www.w3.org/2000/svg">
<path d="M10.0655 12.0756C10.8161 11.3225 11.8533 10.8571 13 10.8571C15.288 10.8571 17.1429 12.712 17.1429 15C17.1429 17.288 15.288 19.1429 13 19.1429C10.712 19.1429 8.85714 17.288 8.85714 15C8.85714 14.7633 8.66526 14.5714 8.42857 14.5714C8.19188 14.5714 8 14.7633 8 15C8 17.7614 10.2386 20 13 20C15.7614 20 18 17.7614 18 15C18 12.2386 15.7614 10 13 10C11.6163 10 10.3632 10.5626 9.45836 11.4706C9.44382 11.4852 9.43054 11.5006 9.41854 11.5166L8.69993 10.798C8.62154 10.7196 8.50488 10.6936 8.40064 10.7314C8.29639 10.7691 8.2234 10.8637 8.21336 10.9741L8.01133 13.1965C8.00365 13.2809 8.03388 13.3644 8.09384 13.4244C8.1538 13.4843 8.23729 13.5146 8.32174 13.5069L10.5441 13.3048C10.6545 13.2948 10.7491 13.2218 10.7869 13.1176C10.8246 13.0133 10.7986 12.8967 10.7202 12.8183L10.0185 12.1165C10.0349 12.1042 10.0506 12.0906 10.0655 12.0756Z" fill="black"/>
<path d="M13.4286 12.1429C13.4286 11.9062 13.2367 11.7143 13 11.7143C12.7633 11.7143 12.5714 11.9062 12.5714 12.1429V15C12.5714 15.1478 12.6476 15.2851 12.7729 15.3634L14.4871 16.4349C14.6879 16.5603 14.9523 16.4993 15.0777 16.2986C15.2032 16.0979 15.1421 15.8334 14.9414 15.708L13.4286 14.7625V12.1429Z" fill="black"/>
<path d="M9.5 10H4.75C4.33579 10 4 10.3358 4 10.75C4 11.1642 4.33579 11.5 4.75 11.5H8V11.5C8 10.9028 8.38214 10.3726 8.94868 10.1838L9.5 10C9.5 9.97175 9.5 10.4142 9.5 10Z" fill="black"/>
<path d="M7.73738 14.75C7.73738 14.3358 7.73738 14.75 7.73738 14H4.75C4.33579 14 4 14.3358 4 14.75C4 15.1642 4.33579 15.5 4.75 15.5H7.73738C7.73738 14.75 7.73738 15.1642 7.73738 14.75Z" fill="black"/>
<path fill-rule="evenodd" clip-rule="evenodd" d="M2.75 0C1.23122 0 0 1.23122 0 2.75V16.75C0 18.2688 1.23122 19.5 2.75 19.5H9.85835C11 19.5 9 19.5 8.5 18L14 10H14.365C14.7764 10 15.176 10.1378 15.5 10.3915V10.3915V5.71766C15.5 5.33689 15.3758 4.96651 15.1463 4.6627L12.1485 0.695042C11.8177 0.257298 11.3009 0 10.7522 0H2.75ZM1.5 2.75C1.5 2.05964 2.05964 1.5 2.75 1.5H10V5.89705C10 6.31126 10.3358 6.64705 10.75 6.64705H14V10L8.5 18H2.75C2.05964 18 1.5 17.4404 1.5 16.75V2.75Z" fill="black"/>
</svg>
