<svg width="23" height="20" viewBox="0 0 23 20" fill="none" xmlns="http://www.w3.org/2000/svg">
<path d="M11.5 7.96766C11.5 7.55344 11.1642 7.21766 10.75 7.21766H4.75C4.33579 7.21766 4 7.55344 4 7.96766C4 8.38187 4.33579 8.71766 4.75 8.71766H10.75C11.1642 8.71766 11.5 8.38187 11.5 7.96766Z" fill="black"/>
<path d="M11.5 10C11.5 10 11.1642 9.75 10.75 9.75H4.75C4.33578 9.75 4 10.0858 4 10.5C4 10.9142 4.33578 11.25 4.75 11.25H10.2123C11.5 10 10 11.25 11.5 10Z" fill="black"/>
<path fill-rule="evenodd" clip-rule="evenodd" d="M2.74987 0C1.23108 0 -0.00012207 1.23122 -0.00012207 2.75V16.75C-0.00012207 18.2688 1.23108 19.5 2.74987 19.5H12.7499C14.2686 19.5 15.4999 18.2688 15.4999 16.75V5.71766C15.4999 5.33689 15.3757 4.96651 15.1461 4.6627L12.1483 0.695042C11.8176 0.257298 11.3007 0 10.7521 0H2.74987ZM1.49987 2.75C1.49987 2.05964 2.05951 1.5 2.74987 1.5H9.99986V5.89705C9.99986 6.31126 10.3356 6.64705 10.7499 6.64705H13.9999V7.21766L15.4999 5.71766V14.5L13.9999 16C13.9999 16.6904 13.4402 18 12.7499 18H2.74987C2.05951 18 1.49987 17.4404 1.49987 16.75V2.75Z" fill="black"/>
<path fill-rule="evenodd" clip-rule="evenodd" d="M19.4727 3.21967C19.3321 3.07902 19.1413 3 18.9424 3C18.7435 3 18.5527 3.07902 18.4121 3.21967L9.21969 12.4121C9.12546 12.5063 9.05804 12.6239 9.02436 12.7528L8.02436 16.5813C7.95707 16.8389 8.03141 17.1129 8.21969 17.3011C8.40796 17.4894 8.68194 17.5638 8.93956 17.4965L12.768 16.4965C12.8969 16.4628 13.0145 16.3954 13.1088 16.3011L22.3012 7.10876C22.5941 6.81586 22.5941 6.34099 22.3012 6.0481L19.4727 3.21967ZM10.4242 13.3288L18.9424 4.81066L20.7102 6.57843L12.192 15.0966L9.79924 15.7216L10.4242 13.3288Z" fill="black"/>
</svg>
