<svg width="20" height="20" viewBox="0 0 20 20" fill="none" xmlns="http://www.w3.org/2000/svg">
<path d="M15.7501 8.99997C15.0597 8.99997 14.5001 9.55961 14.5001 10.25C14.5001 10.9403 15.0597 11.5 15.7501 11.5C16.4404 11.5 17.0001 10.9403 17.0001 10.25C17.0001 9.55961 16.4404 8.99997 15.7501 8.99997Z" fill="black"/>
<path fill-rule="evenodd" clip-rule="evenodd" d="M2.1732 6.11529L4.25006 5.88446V1.91299C4.25006 1.2697 4.74012 0.732328 5.38068 0.673199C8.45373 0.389533 11.5464 0.389533 14.6194 0.673199C15.26 0.732328 15.7501 1.2697 15.7501 1.91299V5.88445L17.827 6.11529C18.5933 6.20047 19.2255 6.75389 19.4113 7.5022C19.9771 9.78104 19.9771 12.1637 19.4113 14.4425L19.228 15.1807C19.1449 15.5152 18.8447 15.75 18.5001 15.75H15.7501V18.083C15.7501 18.705 15.2787 19.2259 14.6597 19.2877C11.561 19.5976 8.43911 19.5976 5.34037 19.2877C4.72142 19.2259 4.25006 18.705 4.25006 18.083V15.75H1.50009C1.15548 15.75 0.855226 15.5152 0.772187 15.1807L0.588902 14.4425C0.0231003 12.1637 0.0231004 9.78104 0.588902 7.5022C0.774697 6.75389 1.40688 6.20047 2.1732 6.11529ZM14.2501 5.73954C11.4215 5.5076 8.57864 5.5076 5.75006 5.73954V2.14604C8.57799 1.89859 11.4221 1.89859 14.2501 2.14604V5.73954ZM14.2501 14.5016C14.2482 14.3437 14.147 14.2077 14.0034 14.1569C11.3397 13.9208 8.66044 13.9208 5.9968 14.1569C5.85183 14.2081 5.75009 14.3462 5.75009 14.506V15L5.75006 15.0063V17.8205C8.57714 18.0867 11.423 18.0867 14.2501 17.8205V14.5016ZM17.9135 14.25H15.7501V13.917C15.7501 13.2949 15.2787 12.7741 14.6597 12.7122C14.5243 12.6987 14.3889 12.6857 14.2534 12.6734C14.1966 12.6618 14.1388 12.6528 14.0802 12.6465C11.368 12.3543 8.63221 12.3543 5.91998 12.6465C5.86135 12.6528 5.8036 12.6618 5.74684 12.6733C5.61131 12.6857 5.47582 12.6987 5.34037 12.7122C4.72142 12.7741 4.25006 13.2949 4.25006 13.917V14.25H2.08664L2.0447 14.081C1.53783 12.0396 1.53783 9.90513 2.0447 7.86366C2.0792 7.7247 2.1966 7.62193 2.3389 7.60611L4.42123 7.37467C8.12905 6.96255 11.8711 6.96255 15.5789 7.37467L17.6613 7.60611C17.8036 7.62193 17.921 7.7247 17.9555 7.86366C18.4623 9.90513 18.4623 12.0396 17.9555 14.081L17.9135 14.25Z" fill="black"/>
</svg>
