<svg width="17" height="17" viewBox="0 0 17 17" fill="none" xmlns="http://www.w3.org/2000/svg">
<path fill-rule="evenodd" clip-rule="evenodd" d="M6.81832 4.87922C6.12217 4.80146 5.40154 4.80146 4.70538 4.87922C4.53622 4.89811 4.40282 5.03197 4.38379 5.19454C4.30066 5.90486 4.30066 6.62245 4.38379 7.33277C4.40282 7.49534 4.53622 7.6292 4.70538 7.64809C5.40154 7.72585 6.12217 7.72585 6.81832 7.64809C6.98748 7.6292 7.12088 7.49534 7.13991 7.33277C7.22304 6.62245 7.22304 5.90486 7.13991 5.19454C7.12088 5.03197 6.98748 4.89811 6.81832 4.87922ZM4.61414 4.0634C5.37093 3.97887 6.15277 3.97887 6.90956 4.0634C7.45218 4.124 7.89162 4.55086 7.95579 5.09918C8.04634 5.87286 8.04634 6.65445 7.95579 7.42813C7.89162 7.97645 7.45218 8.40331 6.90956 8.46391C6.15277 8.54844 5.37093 8.54844 4.61414 8.46391C4.07153 8.40331 3.63208 7.97645 3.56791 7.42813C3.47736 6.65445 3.47736 5.87286 3.56791 5.09918C3.63208 4.55086 4.07153 4.124 4.61414 4.0634Z" fill="black"/>
<path fill-rule="evenodd" clip-rule="evenodd" d="M6.81832 10.3519C6.12217 10.2742 5.40154 10.2742 4.70538 10.3519C4.53622 10.3708 4.40282 10.5047 4.38379 10.6672C4.30066 11.3776 4.30066 12.0951 4.38379 12.8055C4.40282 12.968 4.53622 13.1019 4.70538 13.1208C5.40154 13.1985 6.12217 13.1985 6.81832 13.1208C6.98748 13.1019 7.12088 12.968 7.13991 12.8055C7.22304 12.0951 7.22304 11.3776 7.13991 10.6672C7.12088 10.5047 6.98748 10.3708 6.81832 10.3519ZM4.61414 9.53609C5.37093 9.45156 6.15277 9.45156 6.90956 9.53609C7.45218 9.59669 7.89162 10.0236 7.95579 10.5719C8.04634 11.3455 8.04634 12.1271 7.95579 12.9008C7.89162 13.4491 7.45218 13.876 6.90956 13.9366C6.15277 14.0211 5.37093 14.0211 4.61414 13.9366C4.07153 13.876 3.63208 13.4491 3.56791 12.9008C3.47736 12.1271 3.47736 11.3455 3.56791 10.5719C3.63208 10.0236 4.07153 9.59669 4.61414 9.53609Z" fill="black"/>
<path fill-rule="evenodd" clip-rule="evenodd" d="M12.2946 4.87922C11.5985 4.80146 10.8778 4.80146 10.1817 4.87922C10.0125 4.89811 9.87912 5.03197 9.86009 5.19454C9.77696 5.90486 9.77696 6.62245 9.86009 7.33277C9.87912 7.49534 10.0125 7.6292 10.1817 7.64809C10.8778 7.72585 11.5985 7.72585 12.2946 7.64809C12.4638 7.6292 12.5972 7.49534 12.6162 7.33277C12.6993 6.62245 12.6993 5.90486 12.6162 5.19454C12.5972 5.03197 12.4638 4.89811 12.2946 4.87922ZM10.0904 4.0634C10.8472 3.97887 11.6291 3.97887 12.3859 4.0634C12.9285 4.124 13.3679 4.55086 13.4321 5.09918C13.5226 5.87286 13.5226 6.65445 13.4321 7.42813C13.3679 7.97645 12.9285 8.40331 12.3859 8.46391C11.6291 8.54844 10.8472 8.54844 10.0904 8.46391C9.54782 8.40331 9.10838 7.97645 9.04421 7.42813C8.95366 6.65445 8.95366 5.87286 9.04421 5.09918C9.10838 4.55086 9.54782 4.124 10.0904 4.0634Z" fill="black"/>
<path fill-rule="evenodd" clip-rule="evenodd" d="M10.0778 9.9231C10.6204 9.98371 10.5946 10.0236 10.6588 10.5719C10.5946 11.1202 10.6204 11.1283 10.0778 11.1889C9.53521 11.1283 9.53506 11.1202 9.47089 10.5719C9.53506 10.0236 9.53521 9.98371 10.0778 9.9231Z" fill="black"/>
<path fill-rule="evenodd" clip-rule="evenodd" d="M10.0778 12.0938C10.6204 12.1544 10.5946 12.1942 10.6588 12.7425C10.5946 13.2908 10.6204 13.2989 10.0778 13.3595C9.53521 13.2989 9.53506 13.2908 9.47089 12.7425C9.53506 12.1942 9.53521 12.1544 10.0778 12.0938Z" fill="black"/>
<path fill-rule="evenodd" clip-rule="evenodd" d="M11 11C13 11 12.6238 11.1005 12.6879 11.6488C12.6238 12.1971 12.5 12.5 11 12.2658C10.4574 12.2052 10.4572 12.1971 10.3931 11.6488C10.4572 11.1005 10.4574 11.0606 11 11Z" fill="black"/>
<path fill-rule="evenodd" clip-rule="evenodd" d="M12.1069 11C12.6495 11.0606 12.6753 11.2818 12.6879 12.2114C12.7006 13.141 12.6495 13.2989 12.1069 13.3595C11.5643 13.2989 11.6735 12.8141 11.6094 12.2658C11.6735 11.7175 11.5 11 12.1069 11Z" fill="black"/>
<path fill-rule="evenodd" clip-rule="evenodd" d="M10.7079 0.995027C10.7079 1.54457 11.1534 1.99005 11.703 1.99005L15.0099 1.99005V5.29705C15.0099 5.84659 15.4554 6.29207 16.005 6.29207C16.5545 6.29207 17 5.84659 17 5.29705V0.995028C17 0.44549 16.5545 1.06597e-06 16.005 9.07818e-07L11.703 0C11.1534 -1.58155e-07 10.7079 0.445489 10.7079 0.995027Z" fill="black"/>
<path fill-rule="evenodd" clip-rule="evenodd" d="M16.0049 10.7079C15.4554 10.7079 15.0099 11.1534 15.0099 11.703L15.0099 15.0099L11.7029 15.0099C11.1534 15.0099 10.7079 15.4554 10.7079 16.005C10.7079 16.5545 11.1534 17 11.7029 17L16.0049 17C16.5545 17 17 16.5545 17 16.005L17 11.703C17 11.1534 16.5545 10.7079 16.0049 10.7079Z" fill="black"/>
<path fill-rule="evenodd" clip-rule="evenodd" d="M0.99506 10.7079C1.5446 10.7079 1.99009 11.1534 1.99009 11.703L1.99009 15.0099L5.29707 15.0099C5.84661 15.0099 6.2921 15.4554 6.2921 16.005C6.2921 16.5545 5.84661 17 5.29707 17L0.995061 17C0.445524 17 3.5808e-05 16.5545 3.56962e-05 16.005L3.57381e-05 11.703C3.55704e-05 11.1534 0.445523 10.7079 0.99506 10.7079Z" fill="black"/>
<path fill-rule="evenodd" clip-rule="evenodd" d="M6.29206 0.995027C6.29206 1.54457 5.84657 1.99005 5.29704 1.99005L1.99005 1.99005L1.99005 5.29705C1.99005 5.84659 1.54456 6.29207 0.995025 6.29207C0.445488 6.29207 1.77342e-07 5.84659 0 5.29705L1.27127e-06 0.995027C1.37351e-06 0.445489 0.445489 1.77343e-07 0.995026 1.11833e-07L5.29704 5.16403e-07C5.84657 3.94977e-07 6.29206 0.445489 6.29206 0.995027Z" fill="black"/>
</svg>
