<svg width="18" height="19" viewBox="0 0 18 19" fill="none" xmlns="http://www.w3.org/2000/svg">
<path d="M3.54543 5.16265C3.33021 5.10587 3.15133 4.95643 3.05716 4.75474C2.963 4.55305 2.96329 4.31996 3.05795 4.11851L4.7187 0.584121C4.84246 0.320735 5.10742 0.152717 5.39843 0.153077C5.68944 0.153437 5.95398 0.32211 6.07709 0.585801L6.80971 2.15504C6.83591 2.14474 6.86295 2.13581 6.89078 2.12836C11.2381 0.963489 15.7067 3.5434 16.8715 7.89075C18.0364 12.2381 15.4565 16.7066 11.1091 17.8715C6.7618 19.0364 2.29326 16.4565 1.12839 12.1091C0.757969 10.7267 0.766303 9.32978 1.09074 8.03105C1.19112 7.62919 1.59828 7.38479 2.00015 7.48518C2.40201 7.58557 2.6464 7.99273 2.54602 8.39459C2.28172 9.45258 2.27444 10.5907 2.57728 11.7209C3.52774 15.268 7.17377 17.3731 10.7209 16.4226C14.2681 15.4722 16.3731 11.8261 15.4226 8.27898C14.4877 4.78982 10.9447 2.69601 7.45307 3.53307L8.19226 5.11637C8.31537 5.38006 8.27483 5.69116 8.08825 5.91449C7.90167 6.13783 7.60274 6.23307 7.32136 6.15883L3.54543 5.16265Z" fill="black"/>
</svg>
